<svg xmlns="http://www.w3.org/2000/svg" width="30" height="30" viewBox="0 0 30 30" fill="none"><style>.a{fill:black;}</style><g clip-path="url(#clip0)"><path d="M0.6 30H22.3C22.6 30 22.8 29.7 22.8 29.4V18.2L29.8 11.2C30 11 30 10.7 29.8 10.5L27 7.7C26.8 7.5 26.5 7.5 26.3 7.7L22.8 11.1V5.8C22.8 5.7 22.8 5.6 22.7 5.5L17.4 0.2C17.3 0.1 17.2 0 17.1 0H0.6C0.3 0 0.1 0.3 0.1 0.6V29.4C0.1 29.7 0.3 30 0.6 30ZM17.2 18.7L18.8 20.3 16.4 21.1 17.2 18.7ZM19.8 19.8L17.7 17.7 24.3 11.1 26.4 13.2 19.8 19.8ZM26.7 8.8L28.7 10.8 27.1 12.4 25.1 10.4 26.7 8.8ZM17.6 1.8L21.1 5.3H17.6V1.8ZM1.1 1H16.6V5.8C16.6 6 16.6 6.1 16.7 6.2 16.8 6.3 16.9 6.3 17.1 6.3H21.8V12.2L16.6 17.4C16.5 17.4 16.5 17.5 16.5 17.5L15.7 19.8H4.5C4.2 19.8 4 20 4 20.3 4 20.6 4.2 20.8 4.5 20.8H15.4L15.1 21.8C15 21.9 15.1 22.1 15.2 22.3 15.2 22.3 15.3 22.4 15.3 22.4H4.5C4.2 22.4 4 22.6 4 22.9 4 23.2 4.2 23.4 4.5 23.4H18.4C18.7 23.4 18.9 23.2 18.9 22.9 18.9 22.6 18.7 22.4 18.4 22.4H15.8L20 21C20 21 20.1 20.9 20.1 20.9L21.8 19.2V29H1.1V1Z" class="side-nav-img mr-5"/><path d="M18.4 25H4.5C4.2 25 4 25.2 4 25.5 4 25.8 4.2 26 4.5 26H18.4C18.7 26 18.9 25.8 18.9 25.5 18.9 25.2 18.7 25 18.4 25Z" class="side-nav-img mr-5"/><path d="M4.5 18.2H11.8C12.1 18.2 12.4 18 12.4 17.7 12.4 17.4 12.1 17.2 11.8 17.2H4.5C4.2 17.2 4 17.4 4 17.7 4 18 4.2 18.2 4.5 18.2Z" class="side-nav-img mr-5"/></g><defs><clipPath><rect width="30" height="30" fill="white"/></clipPath></defs></svg>