<svg xmlns="http://www.w3.org/2000/svg" viewBox="0 0 512 512"><path d="M432 0H80C66.8 0 56 10.8 56 24v464c0 13.2 10.8 24 24 24h352c13.2 0 24-10.8 24-24V24C456 10.8 445.2 0 432 0zM80 16h352c4.4 0 8 3.6 8 8v200H72V24C72 19.6 75.6 16 80 16zM432 496H80c-4.4 0-8-3.6-8-8V240h368v248C440 492.4 436.4 496 432 496z"/><path d="M168 136c22.1 0 40-17.9 40-40v-8c0-22.1-17.9-40-40-40s-40 17.9-40 40v8C128 118.1 145.9 136 168 136zM144 88c0-13.2 10.8-24 24-24s24 10.8 24 24v8c0 13.2-10.8 24-24 24s-24-10.8-24-24V88z"/><path d="M118.7 200h98.7c8.1 0 14.6-6.6 14.6-14.6V168c0-7-3.2-14.8-8.7-20.8 -6.3-7-14.5-10.9-23.2-10.9h-6.8c-2.8 0-5.4 1.4-6.8 3.8C181.8 147.7 175.1 152 168 152s-13.8-4.3-18.5-11.9c-1.5-2.4-4-3.8-6.8-3.8h-6.8C117.9 136.3 104 153.3 104 168v17.3C104 193.4 110.6 200 118.7 200zM120 168c0-5.4 6.2-15.7 15.9-15.7h2.6C146.1 162.3 156.6 168 168 168s21.9-5.7 29.5-15.7h2.6c9.7 0 15.9 10.3 15.9 15.7v16h-96V168z"/><path d="M256 72h88c4.4 0 8-3.6 8-8s-3.6-8-8-8h-88c-4.4 0-8 3.6-8 8S251.6 72 256 72z"/><path d="M256 136h24c4.4 0 8-3.6 8-8s-3.6-8-8-8h-24c-4.4 0-8 3.6-8 8S251.6 136 256 136z"/><path d="M336 120h-24c-4.4 0-8 3.6-8 8s3.6 8 8 8h24c4.4 0 8-3.6 8-8S340.4 120 336 120z"/><path d="M392 120h-24c-4.4 0-8 3.6-8 8s3.6 8 8 8h24c4.4 0 8-3.6 8-8S396.4 120 392 120z"/><path d="M256 104h136c4.4 0 8-3.6 8-8s-3.6-8-8-8H256c-4.4 0-8 3.6-8 8S251.6 104 256 104z"/><path d="M112 280h16c4.4 0 8-3.6 8-8s-3.6-8-8-8h-16c-4.4 0-8 3.6-8 8S107.6 280 112 280z"/><path d="M400 264H168c-4.4 0-8 3.6-8 8s3.6 8 8 8h232c4.4 0 8-3.6 8-8S404.4 264 400 264z"/><path d="M112 312h16c4.4 0 8-3.6 8-8s-3.6-8-8-8h-16c-4.4 0-8 3.6-8 8S107.6 312 112 312z"/><path d="M400 296H168c-4.4 0-8 3.6-8 8s3.6 8 8 8h232c4.4 0 8-3.6 8-8S404.4 296 400 296z"/><path d="M304 344H112c-4.4 0-8 3.6-8 8s3.6 8 8 8h192c4.4 0 8-3.6 8-8S308.4 344 304 344z"/><path d="M272 408H112c-4.4 0-8 3.6-8 8s3.6 8 8 8h160c4.4 0 8-3.6 8-8S276.4 408 272 408z"/><path d="M112 392h128c4.4 0 8-3.6 8-8s-3.6-8-8-8H112c-4.4 0-8 3.6-8 8S107.6 392 112 392z"/><path d="M200 440h-88c-4.4 0-8 3.6-8 8s3.6 8 8 8h88c4.4 0 8-3.6 8-8S204.4 440 200 440z"/><path d="M400 440h-32c-4.4 0-8 3.6-8 8s3.6 8 8 8h32c4.4 0 8-3.6 8-8S404.4 440 400 440z"/><path d="M400 408h-16c-4.4 0-8 3.6-8 8s3.6 8 8 8h16c4.4 0 8-3.6 8-8S404.4 408 400 408z"/></svg>