<svg xmlns="http://www.w3.org/2000/svg" width="23" height="23" viewBox="0 0 23 23" fill="none"><style>.a{fill:#546E7A;}</style><g clip-path="url(#clip0)"><path d="M19.8 2.7H2.8C1.2 2.7 0 3.9 0 5.5V17.1C0 18.6 1.2 19.9 2.8 19.9H19.8C21.3 19.9 22.6 18.6 22.6 17.1V5.5C22.6 3.9 21.3 2.7 19.8 2.7ZM21.3 17.1C21.3 17.9 20.6 18.6 19.8 18.6H2.8C1.9 18.6 1.3 17.9 1.3 17.1V5.5C1.3 4.6 1.9 4 2.8 4H19.8C20.6 4 21.3 4.6 21.3 5.5V17.1H21.3Z" class="side-nav-img mr-5"/><path d="M14.2 11.1L19.7 6.2C20 6 20 5.6 19.8 5.3 19.6 5 19.2 5 18.9 5.2L11.3 12.1 9.8 10.8C9.8 10.7 9.8 10.7 9.8 10.7 9.8 10.7 9.7 10.7 9.7 10.6L3.7 5.2C3.4 5 3 5 2.8 5.3 2.5 5.6 2.6 6 2.8 6.2L8.4 11.2 2.8 16.4C2.6 16.6 2.6 17 2.8 17.3 2.9 17.4 3.1 17.5 3.3 17.5 3.4 17.5 3.6 17.4 3.7 17.3L9.3 12 10.9 13.4C11 13.5 11.1 13.6 11.3 13.6 11.4 13.6 11.6 13.5 11.7 13.4L13.3 12 18.9 17.3C19 17.4 19.2 17.5 19.3 17.5 19.5 17.5 19.7 17.4 19.8 17.3 20 17 20 16.6 19.8 16.4L14.2 11.1Z" class="side-nav-img mr-5"/></g><defs><clipPath><rect width="22.6" height="22.6" fill="white"/></clipPath></defs></svg>